<?xml version="1.0" encoding="UTF-8" standalone="no"?>
<!-- Created with Inkscape (http://www.inkscape.org/) -->

<svg
   version="1.1"
   id="svg824"
   width="300"
   height="300"
   viewBox="0 0 300 300"
   sodipodi:docname="videogame-archive.svg"
   inkscape:version="1.1.1 (c3084ef, 2021-09-22)"
   inkscape:export-filename="../2135fc0e/romhack-archive.svg"
   inkscape:export-xdpi="96"
   inkscape:export-ydpi="96"
   xmlns:inkscape="http://www.inkscape.org/namespaces/inkscape"
   xmlns:sodipodi="http://sodipodi.sourceforge.net/DTD/sodipodi-0.dtd"
   xmlns="http://www.w3.org/2000/svg"
   xmlns:svg="http://www.w3.org/2000/svg">
  <defs
     id="defs828" />
  <sodipodi:namedview
     id="namedview826"
     pagecolor="#505050"
     bordercolor="#ffffff"
     borderopacity="1"
     inkscape:pageshadow="0"
     inkscape:pageopacity="0"
     inkscape:pagecheckerboard="1"
     showgrid="false"
     inkscape:zoom="0.71376159"
     inkscape:cx="896.65794"
     inkscape:cy="436.42023"
     inkscape:window-width="1306"
     inkscape:window-height="847"
     inkscape:window-x="0"
     inkscape:window-y="25"
     inkscape:window-maximized="0"
     inkscape:current-layer="g830"
     inkscape:showpageshadow="2"
     inkscape:deskcolor="#505050" />
  <g
     inkscape:groupmode="layer"
     inkscape:label="Image"
     id="g830">
    <path
       style="fill:#ffffff;fill-opacity:1"
       d="m 23.266273,292.30072 0.297717,-6.25 h 128.5 128.5 l 0.29772,6.25 0.29771,6.25 H 152.06399 22.968555 Z m 10.797717,-22.75 v -9 h 118.5 118.5 v 9 9 h -118.5 -118.5 z m -2,-204.499995 v -12.5 h 118 118 v 12.5 12.5 h -118 -118 z M 30.021411,40.849449 C 28.234041,38.813747 27.174924,37.025243 27.667819,36.874995 32.330147,35.453788 148.84124,8.5507246 150.33383,8.5507246 c 2.10572,0 121.929,27.9768304 122.66181,28.6395804 0.2374,0.21471 -1.08837,1.95864 -2.94617,3.8754 l -3.37781,3.48502 H 149.97142 33.271174 Z"
       id="path932"
       sodipodi:nodetypes="cccccccccccccccccccccccccccssssscccs" />
    <path
       style="fill:#ffffff;fill-opacity:1;stroke:none;stroke-width:0.862695;stroke-miterlimit:4;stroke-dasharray:none;stroke-opacity:1"
       d="m 172.92595,248.70881 c 0.55535,-0.27388 1.37641,-0.9791 1.82458,-1.56716 l 0.81486,-1.0692 v -18.79433 c 0,-18.50743 -0.01,-18.80715 -0.62698,-19.63477 -0.34484,-0.46225 -1.00487,-1.12282 -1.46674,-1.46793 l -0.83974,-0.62748 -59.7579,-0.0784 c -66.592659,-0.0873 -60.962014,-0.26691 -62.689389,1.9996 l -0.819095,1.07476 v 18.76425 18.76425 l 0.819095,1.07476 c 1.72109,2.25827 -3.830025,2.07421 62.326779,2.0665 54.37945,-0.006 59.49024,-0.0491 60.41453,-0.5049 z m -11.85424,-51.50898 c -0.11121,-3.59432 -0.37538,-4.27174 -2.19656,-5.6327 -0.83048,-0.62062 -1.12085,-0.62837 -26.53295,-0.70865 -28.63419,-0.0905 -26.95106,-0.20808 -28.63666,2.0013 -0.75273,0.98665 -0.82743,1.34073 -0.92203,4.3701 l -0.10293,3.29646 h 29.24703 29.24703 z m -68.125977,-2.43465 c -0.10334,-6.30304 -0.17346,-6.56159 -2.18774,-8.06748 -0.80641,-0.60287 -1.27413,-0.6309 -11.924182,-0.71443 -12.390315,-0.0972 -12.454215,-0.088 -14.052555,2.0072 -0.81305,1.06581 -0.8198,1.11609 -0.913555,6.8048 l -0.09446,5.73107 h 14.633475 14.633477 z m 53.505807,-48.69333 c -0.0791,-39.70809 -0.0816,-39.8491 -0.70635,-40.68658 -0.34484,-0.46222 -1.00488,-1.12277 -1.46675,-1.46788 -0.81348,-0.60783 -1.19936,-0.62749 -12.32078,-0.62749 h -11.48099 l -1.0739,0.81976 c -2.23043,1.70259 -2.07176,-1.54192 -2.07176,42.36634 v 39.44204 h 14.59994 14.59995 z"
       id="path1355-0" />
    <path
       style="fill:#ffffff;fill-opacity:1;stroke:none;stroke-width:0.909825;stroke-miterlimit:4;stroke-dasharray:none;stroke-opacity:1"
       d="m 192.63832,97.607127 c 0.28884,-0.58615 1.03259,-1.45276 1.65278,-1.92579 l 1.12761,-0.86007 h 27.52426 c 27.29864,0 27.53153,0.005 28.41062,0.66176 0.4875,0.36397 1.18416,1.06062 1.54813,1.54811 l 0.66176,0.88634 0.0823,73.344563 c 0.0917,81.73618 0.28832,74.60915 -2.10852,76.4373 l -1.13347,0.86454 h -27.49254 -27.49254 l -1.13347,-0.86454 c -2.38933,-1.82243 -2.18754,5.21962 -2.1794,-76.05528 0.007,-66.90589 0.051,-73.059793 0.53248,-74.036933 z m 15.6544,29.646273 c 0.72641,0.72641 1.02666,0.78783 3.85159,0.78783 h 3.06376 v 3.06376 c 0,2.82493 0.0614,3.12518 0.78783,3.85159 0.74174,0.74174 0.99603,0.78782 4.34762,0.78782 3.35159,0 3.60589,-0.0461 4.34763,-0.78782 0.72641,-0.72641 0.78783,-1.02666 0.78783,-3.85159 v -3.06376 h 3.06376 c 2.82493,0 3.12518,-0.0614 3.85159,-0.78783 0.74174,-0.74174 0.78783,-0.99604 0.78783,-4.34763 0,-3.35159 -0.0461,-3.60588 -0.78783,-4.34763 -0.72641,-0.72641 -1.02666,-0.78782 -3.85159,-0.78782 h -3.06376 v -3.06377 c 0,-2.82492 -0.0614,-3.12517 -0.78783,-3.85158 -0.74174,-0.74175 -0.99604,-0.78783 -4.34763,-0.78783 -3.35159,0 -3.60588,0.0461 -4.34762,0.78783 -0.72642,0.72641 -0.78783,1.02666 -0.78783,3.85158 v 3.06377 h -3.06376 c -2.82493,0 -3.12518,0.0614 -3.85159,0.78782 -0.74175,0.74175 -0.78783,0.99604 -0.78783,4.34763 0,3.35159 0.0461,3.60589 0.78783,4.34763 z m 0,38.51589 c 0.49661,0.49661 1.15454,0.78783 1.7799,0.78783 0.62536,0 1.28329,-0.29122 1.7799,-0.78783 0.78144,-0.78143 0.78782,-0.83753 0.78782,-6.91535 0,-6.07782 -0.006,-6.13392 -0.78782,-6.91535 -0.49661,-0.49661 -1.15454,-0.78783 -1.7799,-0.78783 -0.62536,0 -1.28329,0.29122 -1.7799,0.78783 -0.78144,0.78143 -0.78783,0.83753 -0.78783,6.91535 0,6.07782 0.006,6.13392 0.78783,6.91535 z m 0,20.54181 c 0.49661,0.49661 1.15454,0.78783 1.7799,0.78783 0.62536,0 1.28329,-0.29122 1.7799,-0.78783 0.78144,-0.78143 0.78782,-0.83753 0.78782,-6.91535 0,-6.07782 -0.006,-6.13392 -0.78782,-6.91535 -0.49661,-0.49661 -1.15454,-0.78783 -1.7799,-0.78783 -0.62536,0 -1.28329,0.29122 -1.7799,0.78783 -0.78144,0.78143 -0.78783,0.83753 -0.78783,6.91535 0,6.07782 0.006,6.13392 0.78783,6.91535 z m -0.3975,21.13192 c 0.5209,1.76301 3.17983,4.42194 4.94285,4.94284 2.91239,0.86049 5.68696,0.16381 7.75722,-1.94779 3.01596,-3.0762 3.08181,-7.26046 0.16531,-10.50431 -2.98361,-3.31849 -7.80879,-3.41741 -10.94257,-0.22431 -2.11335,2.15334 -2.77969,4.83339 -1.92281,7.73357 z m 0,20.54181 c 0.5209,1.76301 3.17983,4.42194 4.94285,4.94284 2.91239,0.86049 5.68696,0.16381 7.75722,-1.94779 3.01596,-3.07621 3.08181,-7.26046 0.16531,-10.50431 -2.98361,-3.31849 -7.80879,-3.41741 -10.94257,-0.22432 -2.11335,2.15335 -2.77969,4.8334 -1.92281,7.73358 z"
       id="path1078" />
  </g>
</svg>
