<?xml version="1.0" encoding="UTF-8" standalone="no"?>
<!-- Created with Inkscape (http://www.inkscape.org/) -->

<svg
   version="1.1"
   id="svg824"
   width="300"
   height="300"
   viewBox="0 0 300 300"
   sodipodi:docname="open retrogaming fundation.svg"
   inkscape:version="1.1.1 (c3084ef, 2021-09-22)"
   inkscape:export-filename="/Users/juanf/Documents/source/retrolx-stuff/artwork-lilo/non-original-2/internet-archive-icon-traced.png"
   inkscape:export-xdpi="96"
   inkscape:export-ydpi="96"
   xmlns:inkscape="http://www.inkscape.org/namespaces/inkscape"
   xmlns:sodipodi="http://sodipodi.sourceforge.net/DTD/sodipodi-0.dtd"
   xmlns="http://www.w3.org/2000/svg"
   xmlns:svg="http://www.w3.org/2000/svg">
  <defs
     id="defs828" />
  <sodipodi:namedview
     id="namedview826"
     pagecolor="#505050"
     bordercolor="#ffffff"
     borderopacity="1"
     inkscape:pageshadow="0"
     inkscape:pageopacity="0"
     inkscape:pagecheckerboard="1"
     showgrid="false"
     inkscape:zoom="0.71376159"
     inkscape:cx="896.65794"
     inkscape:cy="436.42023"
     inkscape:window-width="1306"
     inkscape:window-height="847"
     inkscape:window-x="0"
     inkscape:window-y="25"
     inkscape:window-maximized="0"
     inkscape:current-layer="g830" />
  <g
     inkscape:groupmode="layer"
     inkscape:label="Image"
     id="g830">
    <path
       style="fill:#000000"
       d="m 23.266273,292.30072 0.297717,-6.25 h 128.5 128.5 l 0.29772,6.25 0.29771,6.25 H 152.06399 22.968555 Z m 10.797717,-22.75 v -9 h 118.5 118.5 v 9 9 h -118.5 -118.5 z m -2,-204.499995 v -12.5 h 118 118 v 12.5 12.5 h -118 -118 z M 30.021411,40.849449 C 28.234041,38.813747 27.174924,37.025243 27.667819,36.874995 32.330147,35.453788 148.84124,8.5507246 150.33383,8.5507246 c 2.10572,0 121.929,27.9768304 122.66181,28.6395804 0.2374,0.21471 -1.08837,1.95864 -2.94617,3.8754 l -3.37781,3.48502 H 149.97142 33.271174 Z"
       id="path932"
       sodipodi:nodetypes="cccccccccccccccccccccccccccssssscccs" />
    <path
       style="fill:#000000;stroke:none;stroke-width:0.862695;stroke-miterlimit:4;stroke-dasharray:none;stroke-opacity:1"
       d="m 172.92595,248.70881 c 0.55535,-0.27388 1.37641,-0.9791 1.82458,-1.56716 l 0.81486,-1.0692 v -18.79433 c 0,-18.50743 -0.01,-18.80715 -0.62698,-19.63477 -0.34484,-0.46225 -1.00487,-1.12282 -1.46674,-1.46793 l -0.83974,-0.62748 -59.7579,-0.0784 c -66.592659,-0.0873 -60.962014,-0.26691 -62.689389,1.9996 l -0.819095,1.07476 v 18.76425 18.76425 l 0.819095,1.07476 c 1.72109,2.25827 -3.830025,2.07421 62.326779,2.0665 54.37945,-0.006 59.49024,-0.0491 60.41453,-0.5049 z m -11.85424,-51.50898 c -0.11121,-3.59432 -0.37538,-4.27174 -2.19656,-5.6327 -0.83048,-0.62062 -1.12085,-0.62837 -26.53295,-0.70865 -28.63419,-0.0905 -26.95106,-0.20808 -28.63666,2.0013 -0.75273,0.98665 -0.82743,1.34073 -0.92203,4.3701 l -0.10293,3.29646 h 29.24703 29.24703 z m -68.125977,-2.43465 c -0.10334,-6.30304 -0.17346,-6.56159 -2.18774,-8.06748 -0.80641,-0.60287 -1.27413,-0.6309 -11.924182,-0.71443 -12.390315,-0.0972 -12.454215,-0.088 -14.052555,2.0072 -0.81305,1.06581 -0.8198,1.11609 -0.913555,6.8048 l -0.09446,5.73107 h 14.633475 14.633477 z m 53.505807,-48.69333 c -0.0791,-39.70809 -0.0816,-39.8491 -0.70635,-40.68658 -0.34484,-0.46222 -1.00488,-1.12277 -1.46675,-1.46788 -0.81348,-0.60783 -1.19936,-0.62749 -12.32078,-0.62749 h -11.48099 l -1.0739,0.81976 c -2.23043,1.70259 -2.07176,-1.54192 -2.07176,42.36634 v 39.44204 h 14.59994 14.59995 z"
       id="path1355-0" />
    <path
       style="fill:#000000;stroke:none;stroke-width:0.909825;stroke-miterlimit:4;stroke-dasharray:none;stroke-opacity:1"
       d="m 192.63832,97.607127 c 0.28884,-0.58615 1.03259,-1.45276 1.65278,-1.92579 l 1.12761,-0.86007 h 27.52426 c 27.29864,0 27.53153,0.005 28.41062,0.66176 0.4875,0.36397 1.18416,1.06062 1.54813,1.54811 l 0.66176,0.88634 0.0823,73.344563 c 0.0917,81.73618 0.28832,74.60915 -2.10852,76.4373 l -1.13347,0.86454 h -27.49254 -27.49254 l -1.13347,-0.86454 c -2.38933,-1.82243 -2.18754,5.21962 -2.1794,-76.05528 0.007,-66.90589 0.051,-73.059793 0.53248,-74.036933 z m 15.6544,29.646273 c 0.72641,0.72641 1.02666,0.78783 3.85159,0.78783 h 3.06376 v 3.06376 c 0,2.82493 0.0614,3.12518 0.78783,3.85159 0.74174,0.74174 0.99603,0.78782 4.34762,0.78782 3.35159,0 3.60589,-0.0461 4.34763,-0.78782 0.72641,-0.72641 0.78783,-1.02666 0.78783,-3.85159 v -3.06376 h 3.06376 c 2.82493,0 3.12518,-0.0614 3.85159,-0.78783 0.74174,-0.74174 0.78783,-0.99604 0.78783,-4.34763 0,-3.35159 -0.0461,-3.60588 -0.78783,-4.34763 -0.72641,-0.72641 -1.02666,-0.78782 -3.85159,-0.78782 h -3.06376 v -3.06377 c 0,-2.82492 -0.0614,-3.12517 -0.78783,-3.85158 -0.74174,-0.74175 -0.99604,-0.78783 -4.34763,-0.78783 -3.35159,0 -3.60588,0.0461 -4.34762,0.78783 -0.72642,0.72641 -0.78783,1.02666 -0.78783,3.85158 v 3.06377 h -3.06376 c -2.82493,0 -3.12518,0.0614 -3.85159,0.78782 -0.74175,0.74175 -0.78783,0.99604 -0.78783,4.34763 0,3.35159 0.0461,3.60589 0.78783,4.34763 z m 0,38.51589 c 0.49661,0.49661 1.15454,0.78783 1.7799,0.78783 0.62536,0 1.28329,-0.29122 1.7799,-0.78783 0.78144,-0.78143 0.78782,-0.83753 0.78782,-6.91535 0,-6.07782 -0.006,-6.13392 -0.78782,-6.91535 -0.49661,-0.49661 -1.15454,-0.78783 -1.7799,-0.78783 -0.62536,0 -1.28329,0.29122 -1.7799,0.78783 -0.78144,0.78143 -0.78783,0.83753 -0.78783,6.91535 0,6.07782 0.006,6.13392 0.78783,6.91535 z m 0,20.54181 c 0.49661,0.49661 1.15454,0.78783 1.7799,0.78783 0.62536,0 1.28329,-0.29122 1.7799,-0.78783 0.78144,-0.78143 0.78782,-0.83753 0.78782,-6.91535 0,-6.07782 -0.006,-6.13392 -0.78782,-6.91535 -0.49661,-0.49661 -1.15454,-0.78783 -1.7799,-0.78783 -0.62536,0 -1.28329,0.29122 -1.7799,0.78783 -0.78144,0.78143 -0.78783,0.83753 -0.78783,6.91535 0,6.07782 0.006,6.13392 0.78783,6.91535 z m -0.3975,21.13192 c 0.5209,1.76301 3.17983,4.42194 4.94285,4.94284 2.91239,0.86049 5.68696,0.16381 7.75722,-1.94779 3.01596,-3.0762 3.08181,-7.26046 0.16531,-10.50431 -2.98361,-3.31849 -7.80879,-3.41741 -10.94257,-0.22431 -2.11335,2.15334 -2.77969,4.83339 -1.92281,7.73357 z m 0,20.54181 c 0.5209,1.76301 3.17983,4.42194 4.94285,4.94284 2.91239,0.86049 5.68696,0.16381 7.75722,-1.94779 3.01596,-3.07621 3.08181,-7.26046 0.16531,-10.50431 -2.98361,-3.31849 -7.80879,-3.41741 -10.94257,-0.22432 -2.11335,2.15335 -2.77969,4.8334 -1.92281,7.73358 z"
       id="path1078" />
    <path
       style="fill:#000000"
       d="m 609.64068,279.5422 4.29772,-6.25 h 128.5 128.5 l 4.29772,6.25 -3.70229,6.25 H 742.4384 613.34297 Z m 9.77993,-20.75 5.01779,-7 h 118.5 118.5 l 5.44891,7 -5.44891,7 h -118.5 -118.5 z m -0.98221,-202.499999 4,-10.5 h 118 118 l 4,10.5 -4,8.5 h -118 -118 z m 1.95742,-22.20127 c -1.78737,-2.0357 3.15351,-3.82421 3.64641,-3.97446 4.66233,-1.4212 115.17342,-32.3242696 116.66601,-32.3242696 2.10572,0 115.929,31.9768296 116.66181,32.6395796 0.2374,0.21471 4.91163,1.958647 3.05383,3.87541 l -3.37781,3.48501 H 740.34583 623.64558 Z"
       id="path932-0"
       sodipodi:nodetypes="cccccccccccccccccccccccccccssssscccs" />
    <path
       style="fill:#000000;stroke:none;stroke-width:0.862695;stroke-miterlimit:4;stroke-dasharray:none;stroke-opacity:1"
       d="m 749.30036,235.95029 c 0.55535,-0.27388 1.37641,-0.9791 1.82458,-1.56716 l 0.81486,-1.0692 V 214.5196 c 0,-18.50743 -0.01,-18.80715 -0.62698,-19.63477 -0.34484,-0.46225 -1.00487,-1.12282 -1.46674,-1.46793 l -0.83974,-0.62748 -59.7579,-0.0784 c -66.59266,-0.0873 -60.96201,-0.26691 -62.68939,1.9996 l -0.81909,1.07476 v 18.76425 18.76425 l 0.81909,1.07476 c 1.72109,2.25827 -3.83002,2.07421 62.32678,2.0665 54.37945,-0.006 59.49024,-0.0491 60.41453,-0.5049 z m -11.85424,-51.50898 c -0.11121,-3.59432 -0.37538,-4.27174 -2.19656,-5.6327 -0.83048,-0.62062 -1.12085,-0.62837 -26.53295,-0.70865 -28.63419,-0.0905 -26.95106,-0.20808 -28.63666,2.0013 -0.75273,0.98665 -0.82743,1.34073 -0.92203,4.3701 l -0.10293,3.29646 h 29.24703 29.24703 z m -68.12598,-2.43465 c -0.10334,-6.30304 -0.17346,-6.56159 -2.18774,-8.06748 -0.80641,-0.60287 -1.27413,-0.6309 -11.92418,-0.71443 -12.39031,-0.0972 -12.45421,-0.088 -14.05255,2.0072 -0.81305,1.06581 -0.8198,1.11609 -0.91356,6.8048 l -0.0945,5.73107 h 14.63348 14.63347 z m 53.50581,-48.69333 c -0.0791,-39.708089 -0.0816,-39.849099 -0.70635,-40.686579 -0.34484,-0.46222 -1.00488,-1.12277 -1.46675,-1.46788 -0.81348,-0.60783 -1.19936,-0.62749 -12.32078,-0.62749 h -11.48099 l -1.0739,0.81976 c -2.23043,1.70259 -2.07176,-1.54192 -2.07176,42.366339 v 39.44204 h 14.59994 14.59995 z"
       id="path1355-0-6" />
    <path
       style="fill:#000000;stroke:none;stroke-width:0.909825;stroke-miterlimit:4;stroke-dasharray:none;stroke-opacity:1"
       d="m 733.35152,113.55892 c -0.0798,-0.64857 0.0672,-1.78108 0.32662,-2.51668 l 0.4716,-1.33747 23.02008,-15.088425 c 22.83139,-14.964747 23.02891,-15.088233 24.12417,-15.020853 0.60724,0.03717 1.57179,0.237915 2.14344,0.446107 l 1.03934,0.378528 40.27534,61.297053 c 44.88337,68.31028 41.14087,62.24176 40.13843,65.08466 l -0.47406,1.34442 -22.99355,15.07104 -22.99356,15.07104 -1.42191,-0.10171 c -2.99736,-0.2144 1.03176,5.56464 -43.51524,-62.41458 -36.67105,-55.96098 -40.00774,-61.13195 -40.1407,-62.21313 z m 29.34434,16.2133 c 1.00574,0.20933 1.29053,0.0961 3.65317,-1.45248 l 2.5624,-1.67951 1.67951,2.56239 c 1.54859,2.36265 1.76453,2.58011 2.7703,2.78943 1.02697,0.21374 1.26491,0.11288 4.06803,-1.72441 2.80312,-1.8373 2.99053,-2.01526 3.20429,-3.04221 0.20933,-1.00575 0.0961,-1.29054 -1.45248,-3.65318 l -1.67951,-2.5624 2.56239,-1.67951 c 2.36265,-1.54859 2.58011,-1.76453 2.78942,-2.7703 0.21375,-1.02697 0.11289,-1.26492 -1.7244,-4.06804 -1.8373,-2.80312 -2.01525,-2.99053 -3.04222,-3.20429 -1.00575,-0.20933 -1.29053,-0.0961 -3.65317,1.45249 l -2.5624,1.67952 -1.67952,-2.56241 c -1.54858,-2.36264 -1.76452,-2.58009 -2.77029,-2.78941 -1.02697,-0.21376 -1.26492,-0.11289 -4.06804,1.7244 -2.80312,1.8373 -2.99053,2.01526 -3.20428,3.04222 -0.20934,1.00575 -0.0961,1.29053 1.45248,3.65317 l 1.67951,2.5624 -2.56239,1.67951 c -2.36265,1.54859 -2.58011,1.76454 -2.78943,2.77029 -0.21375,1.02698 -0.11289,1.26492 1.72441,4.06804 1.83729,2.80313 2.01525,2.99054 3.04222,3.20429 z m 21.11389,32.213 c 0.68758,0.14311 1.39748,0.026 1.92051,-0.31681 0.52302,-0.34281 0.91364,-0.94704 1.05675,-1.63462 0.22519,-1.08193 0.19977,-1.13235 -3.132,-6.21557 -3.33178,-5.08322 -3.36756,-5.12685 -4.4498,-5.35182 -0.68758,-0.14311 -1.39749,-0.026 -1.92051,0.31681 -0.52303,0.34281 -0.91365,0.94704 -1.05675,1.63462 -0.2252,1.08193 -0.19979,1.13235 3.13199,6.21558 3.33178,5.08322 3.36755,5.12685 4.44981,5.35181 z m 11.26074,17.18027 c 0.68758,0.14311 1.39749,0.026 1.92051,-0.31681 0.52302,-0.34281 0.91365,-0.94705 1.05675,-1.63462 0.2252,-1.08193 0.19978,-1.13235 -3.132,-6.21557 -3.33178,-5.08322 -3.36755,-5.12685 -4.4498,-5.35182 -0.68758,-0.14311 -1.39748,-0.026 -1.92051,0.31681 -0.52302,0.34281 -0.91364,0.94704 -1.05675,1.63462 -0.22519,1.08193 -0.19978,1.13235 3.13199,6.21557 3.33178,5.08322 3.36756,5.12686 4.44981,5.35182 z m 11.25179,17.89171 c 1.40211,1.18896 5.08351,1.95518 6.84358,1.42437 2.9075,-0.87685 4.84612,-2.98051 5.42004,-5.88145 0.83609,-4.2261 -1.40259,-7.76173 -5.62006,-8.87596 -4.31451,-1.13986 -8.40431,1.4225 -9.27485,5.81097 -0.58708,2.95947 0.32479,5.56622 2.63129,7.52207 z m 11.26074,17.18027 c 1.40212,1.18896 5.08352,1.95518 6.84358,1.42437 2.90751,-0.87685 4.84612,-2.98051 5.42005,-5.88145 0.83608,-4.22611 -1.4026,-7.76173 -5.62007,-8.87596 -4.31451,-1.13987 -8.4043,1.4225 -9.27485,5.81096 -0.58708,2.95947 0.32479,5.56623 2.63129,7.52208 z"
       id="path1078-5" />
    <path
       style="fill:#000000"
       d="m 927.02948,277.69197 4.29772,-6.25 h 128.5 128.5 l 4.2978,6.25 -3.7023,6.25 H 1059.8272 930.73177 Z m 9.77993,-20.75 5.01779,-7 h 118.5 118.5 l 5.4489,7 -5.4489,7 h -118.5 -118.5 z m -0.98221,-202.499997 4,-10.5 h 118 118 l 4,10.5 -4,8.5 h -118 -118 z m 1.95742,-22.20127 c -1.78737,-2.0357 3.15351,-3.82421 3.64641,-3.97446 4.66233,-1.4212 115.17337,-32.3242705 116.66597,-32.3242705 2.1058,0 115.9291,31.9768305 116.6619,32.6395805 0.2374,0.21471 4.9116,1.95865 3.0538,3.87541 l -3.3778,3.48501 H 1057.7346 941.03438 Z"
       id="path932-0-0"
       sodipodi:nodetypes="cccccccccccccccccccccccccccssssscccs" />
    <path
       style="fill:#000000;stroke:none;stroke-width:0.862695;stroke-miterlimit:4;stroke-dasharray:none;stroke-opacity:1"
       d="m 1118.6892,232.10006 c 0.5553,-0.27388 1.3764,-0.9791 1.8245,-1.56716 l 0.8149,-1.0692 v -18.79433 c 0,-18.50743 -0.01,-18.80715 -0.627,-19.63477 -0.3448,-0.46225 -1.0049,-1.12282 -1.4667,-1.46793 l -0.8398,-0.62748 -59.7579,-0.0784 c -66.59262,-0.0873 -60.96197,-0.26691 -62.68935,1.9996 l -0.81909,1.07476 v 18.76425 18.76425 l 0.81909,1.07476 c 1.72109,2.25827 -3.83002,2.07421 62.32675,2.0665 54.3795,-0.006 59.4903,-0.0491 60.4146,-0.5049 z m -11.8543,-51.50898 c -0.1112,-3.59432 -0.3754,-4.27174 -2.1965,-5.6327 -0.8305,-0.62062 -1.1209,-0.62837 -26.533,-0.70865 -28.6342,-0.0905 -26.951,-0.20808 -28.6366,2.0013 -0.7528,0.98665 -0.8275,1.34073 -0.9221,4.3701 l -0.1029,3.29646 h 29.247 29.247 z m -68.126,-2.43465 c -0.1033,-6.30304 -0.1734,-6.56159 -2.1877,-8.06748 -0.8064,-0.60287 -1.2741,-0.6309 -11.9242,-0.71443 -12.3903,-0.0972 -12.4542,-0.088 -14.0525,2.0072 -0.8131,1.06581 -0.8198,1.11609 -0.9136,6.8048 l -0.095,5.73107 h 14.6335 14.6335 z m 53.5058,-48.69333 c -0.079,-39.708087 -0.082,-39.849097 -0.7063,-40.686577 -0.3448,-0.46222 -1.0049,-1.12277 -1.4668,-1.46788 -0.8134,-0.60783 -1.1993,-0.62749 -12.3207,-0.62749 h -11.481 l -1.0739,0.81976 c -2.2305,1.70259 -2.0718,-1.54192 -2.0718,42.366337 v 39.44204 h 14.6 14.5999 z"
       id="path1355-0-6-7" />
    <g
       id="g6919"
       transform="translate(-3.7354753,-47.9386)">
      <path
         style="fill:#000000;stroke:none;stroke-width:1.36474;stroke-miterlimit:4;stroke-dasharray:none;stroke-opacity:1"
         d="m 649.99003,568.95498 c -0.87923,-0.43326 -2.17914,-1.54889 -2.88869,-2.47917 l -1.2901,-1.69142 V 523.498 c 0,-40.94796 0.007,-41.29729 0.99264,-42.61593 0.54595,-0.73125 1.59093,-1.77624 2.32216,-2.32219 l 1.32951,-0.99264 110.01684,-0.12345 c 122.60427,-0.13755 111.91373,-0.43248 114.65595,3.16278 l 1.29681,1.7002 v 41.23881 41.23881 l -1.29681,1.70021 c -2.73364,3.58399 7.82943,3.28131 -114.08292,3.2691 -100.35883,-0.0105 -109.58968,-0.0765 -111.05539,-0.79872 z m 44.4694,-23.4816 c 1.08962,-1.08962 1.18175,-1.53999 1.18175,-5.77739 v -4.59564 h 4.59564 c 4.23739,0 4.68777,-0.0921 5.77738,-1.18174 1.11261,-1.11261 1.18173,-1.49405 1.18173,-6.52143 0,-5.02739 -0.0692,-5.40884 -1.18173,-6.52145 -1.08961,-1.08961 -1.53999,-1.18174 -5.77738,-1.18174 h -4.59564 v -4.59564 c 0,-4.2374 -0.0921,-4.68777 -1.18175,-5.77739 -1.11261,-1.11261 -1.49406,-1.18174 -6.52144,-1.18174 -5.02739,0 -5.40882,0.0692 -6.52145,1.18174 -1.08961,1.08962 -1.18173,1.53999 -1.18173,5.77739 v 4.59564 h -4.59565 c -4.23738,0 -4.68776,0.0921 -5.77737,1.18174 -1.11263,1.11261 -1.18175,1.49406 -1.18175,6.52145 0,5.02738 0.0692,5.40882 1.18175,6.52143 1.08961,1.08963 1.53999,1.18174 5.77737,1.18174 h 4.59565 v 4.59564 c 0,4.2374 0.0921,4.68777 1.18173,5.77739 1.11263,1.11262 1.49406,1.18174 6.52145,1.18174 5.02738,0 5.40883,-0.0692 6.52144,-1.18174 z m 57.77384,0 c 0.74491,-0.74492 1.18174,-1.73181 1.18174,-2.66985 0,-0.93804 -0.43683,-1.92494 -1.18174,-2.66985 -1.17215,-1.17216 -1.2563,-1.18173 -10.37303,-1.18173 -9.11673,0 -9.20088,0.009 -10.37302,1.18173 -0.74492,0.74491 -1.18175,1.73181 -1.18175,2.66985 0,0.93804 0.43683,1.92493 1.18175,2.66985 1.17214,1.17216 1.25629,1.18174 10.37302,1.18174 9.11673,0 9.20088,-0.009 10.37303,-1.18174 z m 30.81271,0 c 0.74492,-0.74492 1.18175,-1.73181 1.18175,-2.66985 0,-0.93804 -0.43683,-1.92494 -1.18175,-2.66985 -1.17214,-1.17216 -1.25629,-1.18173 -10.37302,-1.18173 -9.11673,0 -9.20088,0.009 -10.37303,1.18173 -0.74491,0.74491 -1.18174,1.73181 -1.18174,2.66985 0,0.93804 0.43683,1.92493 1.18174,2.66985 1.17215,1.17216 1.2563,1.18174 10.37303,1.18174 9.11673,0 9.20088,-0.009 10.37302,-1.18174 z m 31.69788,0.59625 c 2.64452,-0.78135 6.63291,-4.76975 7.41426,-7.41428 1.29074,-4.36858 0.24572,-8.53044 -2.92168,-11.63583 -4.6143,-4.52394 -10.89069,-4.62271 -15.75647,-0.24796 -4.97773,4.47541 -5.12611,11.71318 -0.33646,16.41385 3.23001,3.17003 7.25008,4.16954 11.60035,2.88422 z m 30.81272,0 c 2.64451,-0.78135 6.63291,-4.76975 7.41426,-7.41428 1.29073,-4.36858 0.24571,-8.53044 -2.92169,-11.63583 -4.61431,-4.52394 -10.89069,-4.62271 -15.75646,-0.24796 -4.97774,4.47541 -5.12612,11.71318 -0.33648,16.41385 3.23002,3.17003 7.2501,4.16954 11.60037,2.88422 z"
         id="path1078-4" />
      <path
         style="fill:#000000"
         d="m 628.62743,606.53439 4.29772,-6.25 h 128.5 128.5 l 4.29772,6.25 -3.70229,6.25 H 761.42515 632.32971 Z m 9.77992,-20.75 5.0178,-7 h 118.5 118.5 l 5.4489,7 -5.4489,7 h -118.5 -118.5 z m -0.9822,-126.5 4,-10.5 h 118 118 l 4,10.5 -4,8.5 h -118 -118 z m 1.95741,-22.20127 c -1.78737,-2.0357 3.15351,-3.82421 3.64641,-3.97446 4.66233,-1.4212 115.17342,-32.32427 116.66601,-32.32427 2.10572,0 115.929,31.97683 116.66182,32.63958 0.2374,0.21471 4.91162,1.95865 3.05382,3.87541 l -3.37781,3.48501 H 759.33258 642.63232 Z"
         id="path932-0-5"
         sodipodi:nodetypes="cccccccccccccccccccccccccccssssscccs" />
    </g>
    <path
       style="opacity:1;fill:#000000;stroke-width:1.53214"
       d="m 331.85379,90.35461 c -3.43819,-4.67627 -3.8186,-8.18036 -1.48336,-13.663649 1.85639,-4.358972 1.23558,-3.916432 26.76009,-19.075412 10.88706,-6.465813 36.63633,-21.842631 57.22057,-34.170709 24.5049,-14.676177 38.93035,-22.414684 41.78352,-22.414684 2.91589,0 22.87846,11.061282 60.33828,33.433491 69.29651,41.38613 63.57613,37.701547 65.48277,42.17844 2.35626,5.532683 1.98375,9.025193 -1.46257,13.712523 l -3.07006,4.17559 H 456.17343 334.92386 Z"
       id="path1079"
       sodipodi:nodetypes="sssssssscccs" />
    <path
       style="fill:#000000;stroke-width:1.43225"
       d="m 323.96651,296.02117 c -1.8237,-1.85812 -3.31581,-4.49252 -3.31581,-5.85422 0,-2.86801 2.88533,-7.65259 5.43898,-9.01917 0.96816,-0.51814 60.14297,-0.95087 131.49954,-0.96167 123.67486,-0.0188 129.863,0.09 132.38697,2.3252 3.65435,3.23629 3.48872,12.03425 -0.27797,14.76627 -2.67178,1.93786 -14.18672,2.12204 -132.67082,2.12204 H 327.2823 Z"
       id="path1079-0"
       sodipodi:nodetypes="ssssssscs" />
    <path
       style="fill:#000000;stroke-width:1.44157"
       d="m 342.97408,270.06588 c -1.5598,-2.20084 -2.836,-5.32115 -2.836,-6.93402 0,-3.39699 2.46782,-9.06406 4.65195,-10.68271 0.82808,-0.61371 51.44025,-1.12626 112.47146,-1.13906 105.77902,-0.0223 111.07174,0.10662 113.23049,2.75408 3.12556,3.83322 2.98389,14.25393 -0.23775,17.48986 -2.28516,2.29528 -12.13389,2.51344 -113.47326,2.51344 H 345.81008 Z"
       id="path1079-0-0"
       sodipodi:nodetypes="ssssssscs" />
    <path
       style="fill:#000000;stroke:none;stroke-width:0.760142;stroke-miterlimit:4;stroke-dasharray:none;stroke-opacity:1"
       d="m 470.07464,241.83665 c 0.46182,-0.2557 1.1446,-0.91411 1.51729,-1.46313 l 0.67762,-0.99822 v -17.54677 c 0,-17.27891 -0.009,-17.55873 -0.52139,-18.33142 -0.28676,-0.43156 -0.83564,-1.04827 -1.21971,-1.37048 l -0.6983,-0.58583 -49.69352,-0.0732 c -55.37716,-0.0815 -50.69482,-0.2492 -52.13128,1.86686 l -0.68114,1.00342 v 17.51867 17.51869 l 0.68114,1.00341 c 1.43123,2.10837 -3.18497,1.93652 51.82974,1.92933 45.2209,-0.006 49.47094,-0.0458 50.23955,-0.47138 z m -9.85775,-48.08981 c -0.0925,-3.35573 -0.31216,-3.98818 -1.82662,-5.2588 -0.69061,-0.57942 -0.93208,-0.58666 -22.06429,-0.66161 -23.81163,-0.0845 -22.41196,-0.19427 -23.81368,1.86845 -0.62597,0.92116 -0.68808,1.25174 -0.76675,4.08002 l -0.0856,3.07763 h 24.32128 24.32126 z m -56.65225,-2.27304 c -0.0859,-5.88464 -0.14424,-6.12603 -1.81929,-7.53196 -0.67059,-0.56284 -1.05954,-0.58902 -9.91591,-0.667 -10.30354,-0.0907 -10.35667,-0.0822 -11.68582,1.87396 -0.67612,0.99506 -0.68174,1.042 -0.75972,6.3531 l -0.0785,5.35063 h 12.16891 12.16893 z m 44.49439,-45.46106 c -0.0657,-37.07227 -0.0678,-37.20391 -0.58739,-37.9858 -0.28677,-0.43154 -0.83563,-1.04824 -1.21972,-1.37044 -0.67647,-0.56749 -0.99735,-0.58584 -10.24572,-0.58584 h -9.54735 l -0.89304,0.76535 c -1.85478,1.58957 -1.72283,-1.43958 -1.72283,39.55405 v 36.82388 h 12.14101 12.14104 z"
       id="path1355-0-2" />
    <path
       style="fill:#000000;stroke:none;stroke-width:0.806702;stroke-miterlimit:4;stroke-dasharray:none;stroke-opacity:1"
       d="m 487.40564,108.08043 c 0.25632,-0.51927 0.91635,-1.28698 1.46673,-1.70603 l 1.00068,-0.76191 h 24.42591 c 24.22569,0 24.43237,0.005 25.21249,0.58624 0.43262,0.32243 1.05087,0.93958 1.37387,1.37143 l 0.58727,0.78519 0.0731,64.97454 c 0.0814,72.4085 0.25586,66.09479 -1.87117,67.71432 l -1.00588,0.76588 h -24.3978 -24.39776 l -1.00588,-0.76588 c -2.12037,-1.61445 -1.9413,4.62396 -1.93408,-67.3759 0.006,-59.27063 0.0453,-64.72225 0.47255,-65.58788 z m 13.89222,26.26305 c 0.64464,0.64352 0.91109,0.69792 3.41802,0.69792 h 2.71888 v 2.71413 c 0,2.50255 0.0545,2.76854 0.69915,3.41206 0.65824,0.65708 0.88391,0.69791 3.85821,0.69791 2.97431,0 3.19999,-0.0408 3.85824,-0.69791 0.64463,-0.64352 0.69914,-0.90951 0.69914,-3.41206 v -2.71413 h 2.71887 c 2.50694,0 2.77339,-0.0545 3.41803,-0.69792 0.65825,-0.65709 0.69914,-0.88237 0.69914,-3.85148 0,-2.96911 -0.041,-3.19437 -0.69914,-3.85148 -0.64464,-0.64351 -0.91109,-0.69792 -3.41803,-0.69792 h -2.71887 v -2.71412 c 0,-2.50255 -0.0545,-2.76853 -0.69914,-3.41205 -0.65825,-0.6571 -0.88393,-0.69792 -3.85824,-0.69792 -2.9743,0 -3.19997,0.0408 -3.85821,0.69792 -0.64465,0.64352 -0.69915,0.9095 -0.69915,3.41205 v 2.71412 h -2.71888 c -2.50693,0 -2.77338,0.0545 -3.41802,0.69792 -0.65825,0.65711 -0.69914,0.88237 -0.69914,3.85148 0,2.96911 0.041,3.19439 0.69914,3.85148 z m 0,34.12048 c 0.44071,0.43994 1.02457,0.69792 1.57955,0.69792 0.55495,0 1.13883,-0.25798 1.57952,-0.69792 0.69348,-0.69225 0.69915,-0.74195 0.69915,-6.12617 0,-5.38422 -0.005,-5.43392 -0.69915,-6.12617 -0.44069,-0.43994 -1.02457,-0.69792 -1.57952,-0.69792 -0.55498,0 -1.13884,0.25798 -1.57955,0.69792 -0.69348,0.69225 -0.69914,0.74195 -0.69914,6.12617 0,5.38422 0.005,5.43392 0.69914,6.12617 z m 0,18.19759 c 0.44071,0.43994 1.02457,0.69793 1.57955,0.69793 0.55495,0 1.13883,-0.25799 1.57952,-0.69793 0.69348,-0.69224 0.69915,-0.74194 0.69915,-6.12617 0,-5.38422 -0.005,-5.43392 -0.69915,-6.12617 -0.44069,-0.43994 -1.02457,-0.69793 -1.57952,-0.69793 -0.55498,0 -1.13884,0.25799 -1.57955,0.69793 -0.69348,0.69225 -0.69914,0.74195 -0.69914,6.12617 0,5.38423 0.005,5.43393 0.69914,6.12617 z m -0.35276,18.72037 c 0.46226,1.56181 2.82189,3.9173 4.38645,4.37876 2.58454,0.76229 5.04679,0.14512 6.884,-1.72551 2.67647,-2.72514 2.7349,-6.4319 0.1467,-9.30556 -2.64775,-2.93978 -6.92977,-3.02742 -9.71079,-0.19871 -1.87545,1.90759 -2.46677,4.2818 -1.70636,6.85102 z m 0,18.19759 c 0.46226,1.56181 2.82189,3.91731 4.38645,4.37877 2.58454,0.76229 5.04679,0.14511 6.884,-1.72551 2.67647,-2.72515 2.7349,-6.4319 0.1467,-9.30557 -2.64775,-2.93979 -6.92977,-3.02741 -9.71079,-0.19872 -1.87545,1.90761 -2.46677,4.28182 -1.70636,6.85103 z"
       id="path1078-0" />
    <path
       d="m 1150.8272,240.94193 -2,-86 2,-81.999957 c 10.5505,-4.533913 9.2621,-4.582532 19,0 l 2,81.999957 -2,86 c -9.5969,5.27064 -9.0352,3.79613 -19,0 z"
       style="fill:#000000"
       id="path7092"
       sodipodi:nodetypes="ccccccc" />
    <path
       d="m 949.8272,241.94197 -2,-86 2,-81.999957 c 10.5505,-4.533913 9.2621,-4.582532 19,0 l 2,81.999957 -2,86 c -9.5969,5.27064 -9.0352,3.79613 -19,0 z"
       style="fill:#000000"
       id="path7092-7"
       sodipodi:nodetypes="ccccccc" />
    <path
       style="fill:#000000"
       d="m 935.51841,582.59361 4.2977,-6.25 h 128.49999 128.5 l 4.2978,6.25 -3.7023,6.25 H 1068.3161 939.22061 Z m 9.7799,-20.75 5.0178,-7 h 118.49999 118.5 l 5.4489,7 -5.4489,7 h -118.5 -118.49999 z m -0.9822,-202.5 4,-10.5 h 117.99999 118 l 4,10.5 -4,8.5 h -118 -117.99999 z m 1.9574,-22.20127 c -1.7874,-2.0357 3.1535,-3.82421 3.6464,-3.97446 4.6623,-1.4212 115.17339,-32.32427 116.66599,-32.32427 2.1058,0 115.9291,31.97683 116.6619,32.63958 0.2374,0.21471 4.9116,1.95865 3.0538,3.87541 l -3.3778,3.48501 H 1066.2235 949.52331 Z"
       id="path932-0-0-0"
       sodipodi:nodetypes="cccccccccccccccccccccccccccssssscccs" />
    <path
       d="m 1159.3161,545.84357 -2,-86 2,-81.99996 c 10.5505,-4.53391 9.2621,-4.58253 19,0 l 2,81.99996 -2,86 c -9.5969,5.27064 -9.0352,3.79613 -19,0 z"
       style="fill:#000000"
       id="path7092-6"
       sodipodi:nodetypes="ccccccc" />
    <path
       d="m 958.31611,546.84361 -2,-86 2,-81.99996 c 10.5505,-4.53391 9.2621,-4.58253 19,0 l 2,81.99996 -2,86 c -9.5969,5.27064 -9.0352,3.79613 -19,0 z"
       style="fill:#000000"
       id="path7092-7-9"
       sodipodi:nodetypes="ccccccc" />
    <path
       style="fill:#000000"
       d="m 1067.0544,533.28917 c -19.2596,-1.72494 -39.7704,-12.1143 -55.8035,-28.2662 -23.98822,-24.16588 -25.94967,-58.48338 -4.5491,-79.58992 11.2643,-11.10949 23.9902,-16.3743 39.5795,-16.3743 10.0676,0 17.4441,1.80292 26.8941,6.57323 5.6684,2.86142 15.8825,9.82157 16.9514,11.5512 0.2701,0.43698 -7.1303,9.06887 -16.4454,19.18198 -15.1041,16.39822 -17.4791,18.57121 -21.9526,20.08566 -2.7589,0.93399 -6.1218,2.73678 -7.473,4.0062 -2.8629,2.68958 -6.4745,9.72169 -6.4745,12.60654 0,1.29509 -1.2166,2.57923 -3.4548,3.64655 -7.7277,3.6851 -9.0937,15.55929 -2.4345,21.16266 2.4656,2.07464 4.0965,2.56028 8.5979,2.56028 5.0745,0 5.8467,-0.30903 8.9233,-3.5712 2.6132,-2.77078 3.3681,-4.42748 3.3681,-7.39159 0,-3.33696 0.348,-3.90604 2.75,-4.49721 7.98,-1.96402 14.25,-8.4942 14.25,-14.84147 0,-1.94318 2.9459,-5.13552 13.2413,-14.34887 7.2828,-6.51731 14.3617,-12.85848 15.731,-14.09148 l 2.4896,-2.24181 0.8559,2.24181 c 0.4708,1.233 0.6717,6.06682 0.4465,10.74182 -0.3313,6.87735 -1.0392,9.92107 -3.7082,15.94406 -2.8942,6.53116 -3.2357,8.18673 -2.7841,13.5 0.3435,4.04176 1.4342,7.67892 3.2793,10.93566 11.0352,19.47775 -3.3571,33.06665 -32.2782,30.4764 z m 16.3027,-11.75123 c 4.2227,-1.91784 7.4242,-6.70658 7.4242,-11.10489 0,-3.409 -2.8968,-8.70238 -5.8054,-10.60811 -3.0676,-2.01 -9.6997,-2.26235 -13.0025,-0.49473 -3.1989,1.71201 -6.1839,6.97094 -6.1884,10.9025 -0.01,6.92239 5.2106,12.37724 12.4963,13.06238 0.55,0.0517 2.8341,-0.739 5.0758,-1.75715 z m -59.4883,-47.38491 c 11.3229,-7.63044 5.2563,-24.23633 -8.1952,-22.43248 -11.7044,1.56957 -14.4033,17.37314 -3.9079,22.8832 4.6329,2.43227 8.0118,2.30644 12.1031,-0.45072 z m 21.1946,-31.0911 c 5.4954,-2.34156 8.2179,-6.13793 8.2179,-11.45944 0,-7.80972 -4.5944,-12.16944 -12.8246,-12.16944 -12.9291,0 -16.2662,17.65063 -4.3591,23.05662 5.0462,2.29106 4.9469,2.28471 8.9658,0.57226 z m -3.9673,52.71316 c -3.1138,-12.26722 4.5399,-25.12815 15.2716,-25.6618 3.3048,-0.16433 4.071,-0.82485 8.6808,-7.48342 l 5.0561,-7.30318 4.8321,4.75943 c 2.6576,2.61769 4.4974,5.04823 4.0883,5.40121 -0.409,0.35297 -3.7812,2.77466 -7.4937,5.38152 -5.4517,3.82808 -6.7507,5.25182 -6.7538,7.40198 -0.01,5.18453 -3.2948,8.71936 -10.764,11.57349 -6.6464,2.53975 -10.4582,5.39406 -11.4278,8.55734 -0.2476,0.80774 -0.9179,-0.37422 -1.4896,-2.62657 z m 37.4637,-39.05406 -4.7214,-4.79872 23.7214,-24.06428 c 22.4717,-22.79648 31.261,-30.37353 40.9316,-35.28621 5.219,-2.65126 5.2899,-2.64927 5.2899,0.14848 0,5.4516 -10.3177,18.11068 -35.4594,43.5061 l -25.0406,25.29335 z"
       id="path7891" />
  </g>
</svg>
