<?xml version="1.0" encoding="UTF-8"?>
<svg xmlns="http://www.w3.org/2000/svg" xml:space="preserve" width="88" height="31" viewBox=".995 1.495 88 31">
  <path fill="#FFF" d="m2.803 1.481 83.125.149c1.162 0 2.199-.173 2.199 2.333l-.103 27.554H.705V3.861c0-1.235.118-2.38 2.098-2.38z"/>
  <ellipse cx="14.887" cy="16.501" fill="#FFF" rx="11.101" ry="11.172"/>
  <path d="M24.271 5.06c3.484 2.592 5.754 6.744 5.755 11.44-.001 4.272-1.88 8.095-4.842 10.703h62.853V5.06H24.271z"/>
  <path d="M15.242 4.702C8.769 4.702 3.521 9.984 3.521 16.5c0 6.515 5.248 11.798 11.722 11.798 6.473 0 11.721-5.283 11.721-11.798-.001-6.516-5.249-11.798-11.722-11.798zm0 21.384c-5.252 0-9.524-4.302-9.524-9.586 0-1.106.189-2.169.534-3.158l3.725 1.669c-.1.503-.154 1.026-.154 1.567 0 4.709 3.492 6.036 5.689 6.036 1.297 0 2.418-.422 3.296-1.039.092-.066.179-.133.262-.199l-1.758-1.848c-.64.556-1.313.39-1.47.39-1.788 0-2.537-1.899-2.547-3.421l10.266 4.602c.012.002.022.002.032.004-1.62 2.966-4.756 4.983-8.351 4.983zm9.177-7.138-10.587-4.755c.382-.698.989-1.221 1.898-1.221.528 0 .946.177 1.276.397.137.1.255.2.355.3l1.908-1.978c-1.281-1.108-2.739-1.308-3.692-1.308-2.239 0-3.824.976-4.759 2.455l-3.54-1.59c1.704-2.608 4.636-4.337 7.963-4.337 5.251 0 9.523 4.3 9.523 9.587 0 .854-.113 1.685-.323 2.474-.007-.007-.013-.015-.022-.024z"/>
  <path fill="#FFF" d="M36.739 8.557c.392 0 .728.059 1.002.173.276.116.5.268.674.456.173.189.299.405.379.647.079.241.118.493.118.753 0 .253-.039.503-.118.749-.08.244-.206.462-.379.65-.174.188-.397.341-.674.456-.274.115-.61.173-1.002.173h-1.452v2.267h-1.382V8.557h2.834zm-.379 2.976c.158 0 .312-.012.457-.035.147-.023.276-.069.388-.137.111-.068.201-.164.269-.288.068-.124.101-.287.101-.487 0-.201-.033-.363-.101-.488-.067-.123-.157-.22-.269-.286-.111-.069-.24-.114-.388-.138-.146-.024-.299-.036-.457-.036h-1.073v1.896l1.073-.001zm8.391 2.865c-.476.417-1.133.625-1.972.625-.851 0-1.509-.207-1.976-.62-.466-.413-.699-1.052-.699-1.913V8.557h1.381v3.934c0 .171.016.339.045.506.029.165.091.311.185.438.094.125.225.229.392.309.167.08.392.119.673.119.493 0 .833-.109 1.021-.332.188-.221.282-.568.282-1.04V8.557h1.382v3.934c-.001.855-.239 1.491-.714 1.907zm5.318-5.841c.301 0 .572.027.817.081.246.053.459.14.636.26.176.121.312.282.407.483.099.201.146.45.146.745 0 .318-.071.584-.217.796-.144.212-.355.388-.637.522.387.112.676.309.865.589.191.281.286.619.286 1.015 0 .319-.062.595-.185.829-.123.232-.289.422-.498.57-.207.148-.445.257-.713.328-.269.07-.541.105-.822.105H47.11V8.557h2.959zm-.173 2.56c.246 0 .447-.059.606-.178.157-.118.237-.309.237-.576 0-.147-.026-.269-.08-.362-.053-.095-.122-.168-.211-.222-.088-.053-.188-.09-.303-.109-.115-.022-.233-.032-.356-.032h-1.294v1.479h1.401zm.078 2.685c.135 0 .264-.014.387-.04.125-.026.231-.072.326-.133.094-.062.168-.147.227-.254.056-.104.083-.241.083-.406 0-.325-.093-.557-.271-.696-.184-.138-.425-.208-.724-.208h-1.505v1.737h1.477zm5.168-5.245v5.155h3.062v1.169H53.76V8.557h1.382zm5.606 0v6.324h-1.382V8.557h1.382zm5.702 1.687c-.082-.132-.184-.248-.307-.349-.125-.101-.265-.179-.421-.235-.153-.057-.315-.085-.487-.085-.312 0-.574.062-.791.183-.217.12-.396.283-.527.486-.137.204-.232.436-.296.695-.062.26-.093.529-.093.806 0 .267.031.525.093.776s.159.477.296.677c.134.201.311.361.527.483.217.12.479.181.791.181.424 0 .754-.129.99-.389s.383-.602.437-1.028h1.337c-.034.396-.126.753-.271 1.072-.146.318-.34.591-.58.815-.24.224-.521.395-.846.513-.322.119-.678.178-1.064.178-.48 0-.914-.084-1.299-.252-.383-.17-.709-.399-.972-.696-.265-.295-.468-.641-.606-1.04-.143-.399-.213-.829-.213-1.29 0-.472.07-.91.213-1.314.141-.404.344-.757.606-1.058.263-.302.589-.537.972-.709.385-.172.816-.258 1.299-.258.347 0 .675.051.98.15.309.102.583.248.827.439.243.191.444.43.603.713.16.283.258.608.301.974H66.61c-.024-.159-.078-.305-.16-.438zm-29.835 7.171c.405 0 .782.064 1.131.193.35.131.651.326.906.586s.455.584.599.975c.144.389.216.848.216 1.372 0 .462-.059.888-.176 1.274-.118.391-.295.728-.532 1.012-.238.283-.534.506-.89.668-.354.162-.772.244-1.254.244h-2.71v-6.324h2.71zm-.096 5.154c.199 0 .393-.031.581-.097s.354-.174.502-.323c.146-.151.264-.349.352-.59.088-.242.132-.537.132-.887 0-.316-.031-.605-.093-.863-.062-.257-.162-.478-.304-.658-.141-.186-.326-.324-.559-.422-.231-.099-.517-.146-.858-.146h-.984v3.984h1.231v.002zm4.281-3.28c.141-.405.344-.759.606-1.06.265-.304.589-.537.973-.709.385-.172.816-.258 1.298-.258.487 0 .921.086 1.303.258.383.172.705.405.969.709.265.301.467.652.605 1.06.143.403.213.843.213 1.313 0 .461-.07.892-.213 1.288-.141.397-.343.746-.605 1.041-.264.296-.586.526-.969.694-.382.168-.814.253-1.303.253-.481 0-.913-.085-1.298-.253-.384-.168-.708-.398-.973-.694-.263-.295-.466-.644-.606-1.041-.141-.396-.211-.827-.211-1.288 0-.47.07-.91.211-1.313zm1.262 2.089c.062.252.16.479.295.68.135.199.312.36.527.48.218.121.481.184.792.184.312 0 .576-.062.792-.184.219-.12.395-.281.529-.48.134-.201.232-.428.295-.68.062-.25.092-.509.092-.773 0-.276-.029-.547-.092-.807-.062-.261-.161-.49-.295-.695-.137-.203-.312-.365-.529-.486-.216-.12-.48-.182-.792-.182-.311 0-.574.062-.792.182-.216.121-.393.283-.527.486-.135.205-.233.437-.295.695s-.093.527-.093.807c.001.264.032.523.093.773zm8.03-3.963 1.47 4.35h.021l1.391-4.35h1.944v6.324h-1.294v-4.482h-.019l-1.541 4.482h-1.062l-1.54-4.438h-.019v4.438h-1.295v-6.324h1.944zm9.673 0 2.35 6.324h-1.436l-.475-1.408h-2.35l-.494 1.408h-1.392l2.377-6.324h1.42zm.079 3.88-.793-2.321h-.019l-.816 2.321h1.628zm4.703-3.88v6.324h-1.382v-6.324h1.382zm3.056 0 2.623 4.242h.018v-4.242h1.295v6.324h-1.383l-2.613-4.234h-.018v4.234H66.23v-6.324h1.373z"/>
  <path d="M86.853 1H2.147C1.239 1 .5 1.743.5 2.657v28.97c0 .206.167.373.372.373h87.256c.205 0 .372-.167.372-.373V2.657C88.5 1.743 87.761 1 86.853 1zm-84.706.749h84.704c.498 0 .903.407.903.908v28.557H1.245V2.657c0-.501.405-.908.902-.908z"/>
</svg>